<?xml version="1.0" encoding="UTF-8" standalone="no"?>
<!DOCTYPE svg PUBLIC "-//W3C//DTD SVG 1.1//EN"
 "http://www.w3.org/Graphics/SVG/1.1/DTD/svg11.dtd">
<!-- Generated by graphviz version 2.36.0 (20140111.2315)
 -->
<!-- Title: %3 Pages: 1 -->
<svg width="1462pt" height="476pt"
 viewBox="0.00 0.00 1461.61 476.00" xmlns="http://www.w3.org/2000/svg" xmlns:xlink="http://www.w3.org/1999/xlink">
<g id="graph0" class="graph" transform="scale(1 1) rotate(0) translate(4 472)">
<title>%3</title>
<polygon fill="white" stroke="none" points="-4,4 -4,-472 1457.61,-472 1457.61,4 -4,4"/>
<!-- m212671 -->
<g id="node1" class="node"><title>m212671</title>
<g id="a_node1"><a xlink:href="../show.php?212671" xlink:title="Malcolm in the Middle" target="_top">
<ellipse fill="none" stroke="black" cx="139.607" cy="-90" rx="91.9385" ry="18"/>
<text text-anchor="middle" x="139.607" y="-86.3" font-family="Times New Roman,serif" font-size="14.00">Malcolm in the Middle</text>
</a>
</g>
</g>
<!-- m165581 -->
<g id="node2" class="node"><title>m165581</title>
<g id="a_node2"><a xlink:href="../show.php?165581" xlink:title="The King of Queens" target="_top">
<ellipse fill="none" stroke="black" cx="337.607" cy="-18" rx="84.2388" ry="18"/>
<text text-anchor="middle" x="337.607" y="-14.3" font-family="Times New Roman,serif" font-size="14.00">The King of Queens</text>
</a>
</g>
</g>
<!-- m212671&#45;&#45;m165581 -->
<g id="edge1" class="edge"><title>m212671&#45;&#45;m165581</title>
<g id="a_edge1"><a xlink:href="../connection.php?212671-165581" target="_top">
<path fill="none" stroke="black" d="M182.083,-73.9832C215.718,-62.0922 262.443,-45.5732 295.881,-33.7517"/>
</a>
</g>
</g>
<!-- m238784 -->
<g id="node3" class="node"><title>m238784</title>
<g id="a_node3"><a xlink:href="../show.php?238784" xlink:title="Gilmore Girls" target="_top">
<ellipse fill="none" stroke="black" cx="227.607" cy="-162" rx="59.1941" ry="18"/>
<text text-anchor="middle" x="227.607" y="-158.3" font-family="Times New Roman,serif" font-size="14.00">Gilmore Girls</text>
</a>
</g>
</g>
<!-- m238784&#45;&#45;m212671 -->
<g id="edge3" class="edge"><title>m238784&#45;&#45;m212671</title>
<g id="a_edge3"><a xlink:href="../connection.php?238784-212671" target="_top">
<path fill="none" stroke="black" d="M207.197,-144.765C193.184,-133.618 174.638,-118.865 160.518,-107.633"/>
</a>
</g>
</g>
<!-- m238784&#45;&#45;m165581 -->
<g id="edge2" class="edge"><title>m238784&#45;&#45;m165581</title>
<g id="a_edge2"><a xlink:href="../connection.php?238784-165581" target="_top">
<path fill="none" stroke="black" d="M240.658,-144.153C261.828,-116.824 303.414,-63.14 324.574,-35.825"/>
</a>
</g>
</g>
<!-- m285403 -->
<g id="node4" class="node"><title>m285403</title>
<g id="a_node4"><a xlink:href="../show.php?285403" xlink:title="Scrubs" target="_top">
<ellipse fill="none" stroke="black" cx="529.607" cy="-162" rx="36.096" ry="18"/>
<text text-anchor="middle" x="529.607" y="-158.3" font-family="Times New Roman,serif" font-size="14.00">Scrubs</text>
</a>
</g>
</g>
<!-- m285403&#45;&#45;m165581 -->
<g id="edge4" class="edge"><title>m285403&#45;&#45;m165581</title>
<g id="a_edge4"><a xlink:href="../connection.php?285403-165581" target="_top">
<path fill="none" stroke="black" d="M510.141,-146.603C474.199,-120.021 397.643,-63.4015 359.77,-35.3916"/>
</a>
</g>
</g>
<!-- m367279 -->
<g id="node5" class="node"><title>m367279</title>
<g id="a_node5"><a xlink:href="../show.php?367279" xlink:title="Arrested Development" target="_top">
<ellipse fill="none" stroke="black" cx="1150.61" cy="-90" rx="91.9385" ry="18"/>
<text text-anchor="middle" x="1150.61" y="-86.3" font-family="Times New Roman,serif" font-size="14.00">Arrested Development</text>
</a>
</g>
</g>
<!-- m115083 -->
<g id="node6" class="node"><title>m115083</title>
<g id="a_node6"><a xlink:href="../show.php?115083" xlink:title="7th Heaven" target="_top">
<ellipse fill="none" stroke="black" cx="1090.61" cy="-18" rx="51.0191" ry="18"/>
<text text-anchor="middle" x="1090.61" y="-14.3" font-family="Times New Roman,serif" font-size="14.00">7th Heaven</text>
</a>
</g>
</g>
<!-- m367279&#45;&#45;m115083 -->
<g id="edge5" class="edge"><title>m367279&#45;&#45;m115083</title>
<g id="a_edge5"><a xlink:href="../connection.php?367279-115083" target="_top">
<path fill="none" stroke="black" d="M1136.08,-72.055C1126.65,-61.0492 1114.4,-46.7636 1105,-35.789"/>
</a>
</g>
</g>
<!-- m369179 -->
<g id="node7" class="node"><title>m369179</title>
<g id="a_node7"><a xlink:href="../show.php?369179" xlink:title="Two and a Half Men" target="_top">
<ellipse fill="none" stroke="black" cx="889.607" cy="-162" rx="85.19" ry="18"/>
<text text-anchor="middle" x="889.607" y="-158.3" font-family="Times New Roman,serif" font-size="14.00">Two and a Half Men</text>
</a>
</g>
</g>
<!-- m369179&#45;&#45;m165581 -->
<g id="edge6" class="edge"><title>m369179&#45;&#45;m165581</title>
<g id="a_edge6"><a xlink:href="../connection.php?369179-165581" target="_top">
<path fill="none" stroke="black" d="M837.676,-147.641C732.336,-120.542 494.624,-59.392 389.399,-32.3233"/>
</a>
</g>
</g>
<!-- m369179&#45;&#45;m367279 -->
<g id="edge7" class="edge"><title>m369179&#45;&#45;m367279</title>
<g id="a_edge7"><a xlink:href="../connection.php?369179-367279" target="_top">
<path fill="none" stroke="black" d="M940.24,-147.42C985.899,-135.175 1052.75,-117.245 1098.78,-104.901"/>
</a>
</g>
</g>
<!-- m410975 -->
<g id="node8" class="node"><title>m410975</title>
<g id="a_node8"><a xlink:href="../show.php?410975" xlink:title="Desperate Housewives" target="_top">
<ellipse fill="none" stroke="black" cx="337.607" cy="-234" rx="92.413" ry="18"/>
<text text-anchor="middle" x="337.607" y="-230.3" font-family="Times New Roman,serif" font-size="14.00">Desperate Housewives</text>
</a>
</g>
</g>
<!-- m410975&#45;&#45;m165581 -->
<g id="edge9" class="edge"><title>m410975&#45;&#45;m165581</title>
<g id="a_edge9"><a xlink:href="../connection.php?410975-165581" target="_top">
<path fill="none" stroke="black" d="M337.607,-215.849C337.607,-175.78 337.607,-76.3826 337.607,-36.2325"/>
</a>
</g>
</g>
<!-- m410975&#45;&#45;m238784 -->
<g id="edge10" class="edge"><title>m410975&#45;&#45;m238784</title>
<g id="a_edge10"><a xlink:href="../connection.php?410975-238784" target="_top">
<path fill="none" stroke="black" d="M311.817,-216.588C293.783,-205.112 269.846,-189.879 252.103,-178.588"/>
</a>
</g>
</g>
<!-- m410975&#45;&#45;m285403 -->
<g id="edge11" class="edge"><title>m410975&#45;&#45;m285403</title>
<g id="a_edge11"><a xlink:href="../connection.php?410975-285403" target="_top">
<path fill="none" stroke="black" d="M379.268,-217.811C416.216,-204.341 469.175,-185.033 501.375,-173.293"/>
</a>
</g>
</g>
<!-- m410975&#45;&#45;m115083 -->
<g id="edge8" class="edge"><title>m410975&#45;&#45;m115083</title>
<g id="a_edge8"><a xlink:href="../connection.php?410975-115083" target="_top">
<path fill="none" stroke="black" d="M359.756,-216.243C387.481,-196.084 437.116,-162.634 484.607,-144 682.359,-66.4076 936.197,-34.1024 1041.48,-23.4183"/>
</a>
</g>
</g>
<!-- m412142 -->
<g id="node9" class="node"><title>m412142</title>
<g id="a_node9"><a xlink:href="../show.php?412142" xlink:title="House M.D." target="_top">
<ellipse fill="none" stroke="black" cx="946.607" cy="-234" rx="55.3436" ry="18"/>
<text text-anchor="middle" x="946.607" y="-230.3" font-family="Times New Roman,serif" font-size="14.00">House M.D.</text>
</a>
</g>
</g>
<!-- m412142&#45;&#45;m369179 -->
<g id="edge12" class="edge"><title>m412142&#45;&#45;m369179</title>
<g id="a_edge12"><a xlink:href="../connection.php?412142-369179" target="_top">
<path fill="none" stroke="black" d="M933.099,-216.411C924.144,-205.414 912.43,-191.027 903.414,-179.956"/>
</a>
</g>
</g>
<!-- m460649 -->
<g id="node10" class="node"><title>m460649</title>
<g id="a_node10"><a xlink:href="../show.php?460649" xlink:title="How I Met Your Mother" target="_top">
<ellipse fill="none" stroke="black" cx="697.607" cy="-306" rx="100.137" ry="18"/>
<text text-anchor="middle" x="697.607" y="-302.3" font-family="Times New Roman,serif" font-size="14.00">How I Met Your Mother</text>
</a>
</g>
</g>
<!-- m460649&#45;&#45;m285403 -->
<g id="edge15" class="edge"><title>m460649&#45;&#45;m285403</title>
<g id="a_edge15"><a xlink:href="../connection.php?460649-285403" target="_top">
<path fill="none" stroke="black" d="M614.975,-295.738C559.975,-287.675 494.776,-273.797 477.607,-252 458.561,-227.82 488.582,-195.956 510.334,-177.648"/>
</a>
</g>
</g>
<!-- m460649&#45;&#45;m115083 -->
<g id="edge13" class="edge"><title>m460649&#45;&#45;m115083</title>
<g id="a_edge13"><a xlink:href="../connection.php?460649-115083" target="_top">
<path fill="none" stroke="black" d="M792.857,-300.396C873.235,-294.497 979.972,-281.268 1010.61,-252 1069.79,-195.454 1015.05,-146.202 1049.61,-72 1055.89,-58.5018 1066.14,-45.2518 1074.82,-35.3764"/>
</a>
</g>
</g>
<!-- m460649&#45;&#45;m410975 -->
<g id="edge16" class="edge"><title>m460649&#45;&#45;m410975</title>
<g id="a_edge16"><a xlink:href="../connection.php?460649-410975" target="_top">
<path fill="none" stroke="black" stroke-width="2.52" d="M632.414,-292.324C566.562,-279.519 465.525,-259.873 400.506,-247.23"/>
</a>
</g>
</g>
<!-- m460649&#45;&#45;m412142 -->
<g id="edge17" class="edge"><title>m460649&#45;&#45;m412142</title>
<g id="a_edge17"><a xlink:href="../connection.php?460649-412142" target="_top">
<path fill="none" stroke="black" stroke-width="1.59" d="M749.2,-290.496C795.781,-277.401 863.385,-258.396 906.158,-246.371"/>
</a>
</g>
</g>
<!-- m158552 -->
<g id="node11" class="node"><title>m158552</title>
<g id="a_node11"><a xlink:href="../show.php?158552" xlink:title="Charmed" target="_top">
<ellipse fill="none" stroke="black" cx="1102.61" cy="-234" rx="44.2946" ry="18"/>
<text text-anchor="middle" x="1102.61" y="-230.3" font-family="Times New Roman,serif" font-size="14.00">Charmed</text>
</a>
</g>
</g>
<!-- m460649&#45;&#45;m158552 -->
<g id="edge14" class="edge"><title>m460649&#45;&#45;m158552</title>
<g id="a_edge14"><a xlink:href="../connection.php?460649-158552" target="_top">
<path fill="none" stroke="black" d="M779.507,-295.626C850.186,-286.791 954.77,-271.933 1044.61,-252 1052.5,-250.25 1060.89,-248.015 1068.76,-245.744"/>
</a>
</g>
</g>
<!-- m460692 -->
<g id="node12" class="node"><title>m460692</title>
<g id="a_node12"><a xlink:href="../show.php?460692" xlink:title="The War at Home" target="_top">
<ellipse fill="none" stroke="black" cx="100.607" cy="-306" rx="76.0649" ry="18"/>
<text text-anchor="middle" x="100.607" y="-302.3" font-family="Times New Roman,serif" font-size="14.00">The War at Home</text>
</a>
</g>
</g>
<!-- m460692&#45;&#45;m212671 -->
<g id="edge18" class="edge"><title>m460692&#45;&#45;m212671</title>
<g id="a_edge18"><a xlink:href="../connection.php?460692-212671" target="_top">
<path fill="none" stroke="black" d="M102.658,-287.974C106.342,-258.481 114.722,-196.052 125.607,-144 128.14,-131.89 131.71,-118.412 134.612,-108.078"/>
</a>
</g>
</g>
<!-- m460692&#45;&#45;m410975 -->
<g id="edge19" class="edge"><title>m460692&#45;&#45;m410975</title>
<g id="a_edge19"><a xlink:href="../connection.php?460692-410975" target="_top">
<path fill="none" stroke="black" d="M146.303,-291.503C187.194,-279.426 246.969,-261.771 288.788,-249.419"/>
</a>
</g>
</g>
<!-- m898266 -->
<g id="node13" class="node"><title>m898266</title>
<g id="a_node13"><a xlink:href="../show.php?898266" xlink:title="The Big Bang Theory" target="_top">
<ellipse fill="none" stroke="black" cx="1095.61" cy="-306" rx="89.0632" ry="18"/>
<text text-anchor="middle" x="1095.61" y="-302.3" font-family="Times New Roman,serif" font-size="14.00">The Big Bang Theory</text>
</a>
</g>
</g>
<!-- m898266&#45;&#45;m285403 -->
<g id="edge21" class="edge"><title>m898266&#45;&#45;m285403</title>
<g id="a_edge21"><a xlink:href="../connection.php?898266-285403" target="_top">
<path fill="none" stroke="black" d="M1119.96,-288.517C1144.71,-269.807 1176.66,-238.915 1155.61,-216 1145.53,-205.033 696.621,-174.177 565.321,-165.373"/>
</a>
</g>
</g>
<!-- m898266&#45;&#45;m158552 -->
<g id="edge20" class="edge"><title>m898266&#45;&#45;m158552</title>
<g id="a_edge20"><a xlink:href="../connection.php?898266-158552" target="_top">
<path fill="none" stroke="black" d="M1097.34,-287.697C1098.42,-276.846 1099.82,-262.917 1100.9,-252.104"/>
</a>
</g>
</g>
<!-- m903747 -->
<g id="node14" class="node"><title>m903747</title>
<g id="a_node14"><a xlink:href="../show.php?903747" xlink:title="Breaking Bad" target="_top">
<ellipse fill="none" stroke="black" cx="204.607" cy="-378" rx="59.1941" ry="18"/>
<text text-anchor="middle" x="204.607" y="-374.3" font-family="Times New Roman,serif" font-size="14.00">Breaking Bad</text>
</a>
</g>
</g>
<!-- m903747&#45;&#45;m212671 -->
<g id="edge22" class="edge"><title>m903747&#45;&#45;m212671</title>
<g id="a_edge22"><a xlink:href="../connection.php?903747-212671" target="_top">
<path fill="none" stroke="black" d="M152.223,-369.474C102.225,-361.092 32.1293,-345.793 15.6072,-324 -40.4529,-250.057 69.7633,-147.305 118.279,-107.587"/>
</a>
</g>
</g>
<!-- m903747&#45;&#45;m238784 -->
<g id="edge23" class="edge"><title>m903747&#45;&#45;m238784</title>
<g id="a_edge23"><a xlink:href="../connection.php?903747-238784" target="_top">
<path fill="none" stroke="black" d="M206.152,-359.588C208.816,-330.035 214.57,-268.179 220.607,-216 221.994,-204.014 223.777,-190.534 225.197,-180.168"/>
</a>
</g>
</g>
<!-- m903747&#45;&#45;m460649 -->
<g id="edge24" class="edge"><title>m903747&#45;&#45;m460649</title>
<g id="a_edge24"><a xlink:href="../connection.php?903747-460649" target="_top">
<path fill="none" stroke="black" d="M247.872,-365.519C256.365,-363.498 265.237,-361.549 273.607,-360 389.226,-338.607 524.211,-323.388 610.26,-314.898"/>
</a>
</g>
</g>
<!-- m1266020 -->
<g id="node15" class="node"><title>m1266020</title>
<g id="a_node15"><a xlink:href="../show.php?1266020" xlink:title="Parks and Recreation" target="_top">
<ellipse fill="none" stroke="black" cx="1328.61" cy="-162" rx="88.0886" ry="18"/>
<text text-anchor="middle" x="1328.61" y="-158.3" font-family="Times New Roman,serif" font-size="14.00">Parks and Recreation</text>
</a>
</g>
</g>
<!-- m1266020&#45;&#45;m367279 -->
<g id="edge27" class="edge"><title>m1266020&#45;&#45;m367279</title>
<g id="a_edge27"><a xlink:href="../connection.php?1266020-367279" target="_top">
<path fill="none" stroke="black" stroke-width="2.08" d="M1289.98,-145.811C1260.33,-134.15 1219.56,-118.115 1189.77,-106.401"/>
</a>
</g>
</g>
<!-- m1266020&#45;&#45;m115083 -->
<g id="edge25" class="edge"><title>m1266020&#45;&#45;m115083</title>
<g id="a_edge25"><a xlink:href="../connection.php?1266020-115083" target="_top">
<path fill="none" stroke="black" d="M1315.73,-144.056C1298.05,-121.173 1266.74,-82.0835 1251.61,-72 1216.1,-48.339 1169.16,-34.4782 1135.14,-26.9067"/>
</a>
</g>
</g>
<!-- m273855 -->
<g id="node16" class="node"><title>m273855</title>
<g id="a_node16"><a xlink:href="../show.php?273855" xlink:title="My Wife and Kids" target="_top">
<ellipse fill="none" stroke="black" cx="1376.61" cy="-90" rx="77.4897" ry="18"/>
<text text-anchor="middle" x="1376.61" y="-86.3" font-family="Times New Roman,serif" font-size="14.00">My Wife and Kids</text>
</a>
</g>
</g>
<!-- m1266020&#45;&#45;m273855 -->
<g id="edge26" class="edge"><title>m1266020&#45;&#45;m273855</title>
<g id="a_edge26"><a xlink:href="../connection.php?1266020-273855" target="_top">
<path fill="none" stroke="black" d="M1340.23,-144.055C1347.66,-133.211 1357.28,-119.183 1364.76,-108.275"/>
</a>
</g>
</g>
<!-- m1439629 -->
<g id="node17" class="node"><title>m1439629</title>
<g id="a_node17"><a xlink:href="../show.php?1439629" xlink:title="Community" target="_top">
<ellipse fill="none" stroke="black" cx="708.607" cy="-450" rx="52.9443" ry="18"/>
<text text-anchor="middle" x="708.607" y="-446.3" font-family="Times New Roman,serif" font-size="14.00">Community</text>
</a>
</g>
</g>
<!-- m1439629&#45;&#45;m367279 -->
<g id="edge28" class="edge"><title>m1439629&#45;&#45;m367279</title>
<g id="a_edge28"><a xlink:href="../connection.php?1439629-367279" target="_top">
<path fill="none" stroke="black" d="M760.176,-445.47C888.628,-435.269 1212.61,-400.293 1212.61,-307 1212.61,-307 1212.61,-307 1212.61,-233 1212.61,-184.311 1181.61,-133.486 1163.45,-107.885"/>
</a>
</g>
</g>
<!-- m1439629&#45;&#45;m903747 -->
<g id="edge29" class="edge"><title>m1439629&#45;&#45;m903747</title>
<g id="a_edge29"><a xlink:href="../connection.php?1439629-903747" target="_top">
<path fill="none" stroke="black" d="M657.409,-444.774C575.779,-437.586 411.296,-421.255 273.607,-396 265.234,-394.464 256.362,-392.521 247.868,-390.502"/>
</a>
</g>
</g>
<!-- m1442437 -->
<g id="node18" class="node"><title>m1442437</title>
<g id="a_node18"><a xlink:href="../show.php?1442437" xlink:title="Modern Family" target="_top">
<ellipse fill="none" stroke="black" cx="690.607" cy="-234" rx="65.9423" ry="18"/>
<text text-anchor="middle" x="690.607" y="-230.3" font-family="Times New Roman,serif" font-size="14.00">Modern Family</text>
</a>
</g>
</g>
<!-- m1442437&#45;&#45;m285403 -->
<g id="edge30" class="edge"><title>m1442437&#45;&#45;m285403</title>
<g id="a_edge30"><a xlink:href="../connection.php?1442437-285403" target="_top">
<path fill="none" stroke="black" d="M656.856,-218.326C626.797,-205.256 583.428,-186.4 555.885,-174.425"/>
</a>
</g>
</g>
<!-- m1586680 -->
<g id="node19" class="node"><title>m1586680</title>
<g id="a_node19"><a xlink:href="../show.php?1586680" xlink:title="Shameless" target="_top">
<ellipse fill="none" stroke="black" cx="338.607" cy="-306" rx="48.6179" ry="18"/>
<text text-anchor="middle" x="338.607" y="-302.3" font-family="Times New Roman,serif" font-size="14.00">Shameless</text>
</a>
</g>
</g>
<!-- m1586680&#45;&#45;m212671 -->
<g id="edge31" class="edge"><title>m1586680&#45;&#45;m212671</title>
<g id="a_edge31"><a xlink:href="../connection.php?1586680-212671" target="_top">
<path fill="none" stroke="black" d="M303.137,-293.701C278.5,-284.789 245.717,-270.735 220.607,-252 186.761,-226.746 177.378,-217.828 158.607,-180 147.09,-156.789 142.531,-126.792 140.743,-108.229"/>
</a>
</g>
</g>
<!-- m1586680&#45;&#45;m238784 -->
<g id="edge32" class="edge"><title>m1586680&#45;&#45;m238784</title>
<g id="a_edge32"><a xlink:href="../connection.php?1586680-238784" target="_top">
<path fill="none" stroke="black" d="M299.699,-295.151C277.151,-287.321 250.378,-273.936 235.607,-252 221.137,-230.51 222.141,-199.183 224.589,-179.999"/>
</a>
</g>
</g>
<!-- m1586680&#45;&#45;m369179 -->
<g id="edge34" class="edge"><title>m1586680&#45;&#45;m369179</title>
<g id="a_edge34"><a xlink:href="../connection.php?1586680-369179" target="_top">
<path fill="none" stroke="black" d="M385.3,-301.285C506.629,-291.472 823.775,-264.742 842.607,-252 867.499,-235.158 880.159,-200.771 885.787,-180.018"/>
</a>
</g>
</g>
<!-- m1586680&#45;&#45;m410975 -->
<g id="edge35" class="edge"><title>m1586680&#45;&#45;m410975</title>
<g id="a_edge35"><a xlink:href="../connection.php?1586680-410975" target="_top">
<path fill="none" stroke="black" d="M338.36,-287.697C338.205,-276.846 338.006,-262.917 337.852,-252.104"/>
</a>
</g>
</g>
<!-- m284722 -->
<g id="node20" class="node"><title>m284722</title>
<g id="a_node20"><a xlink:href="../show.php?284722" xlink:title="Reba" target="_top">
<ellipse fill="none" stroke="black" cx="804.607" cy="-234" rx="29.3479" ry="18"/>
<text text-anchor="middle" x="804.607" y="-230.3" font-family="Times New Roman,serif" font-size="14.00">Reba</text>
</a>
</g>
</g>
<!-- m1586680&#45;&#45;m284722 -->
<g id="edge33" class="edge"><title>m1586680&#45;&#45;m284722</title>
<g id="a_edge33"><a xlink:href="../connection.php?1586680-284722" target="_top">
<path fill="none" stroke="black" d="M386.544,-303.524C466.467,-300.077 631.417,-288.745 765.607,-252 771.164,-250.478 776.955,-248.306 782.322,-246.02"/>
</a>
</g>
</g>
<!-- m1741256 -->
<g id="node21" class="node"><title>m1741256</title>
<g id="a_node21"><a xlink:href="../show.php?1741256" xlink:title="Suburgatory" target="_top">
<ellipse fill="none" stroke="black" cx="338.607" cy="-378" rx="55.3436" ry="18"/>
<text text-anchor="middle" x="338.607" y="-374.3" font-family="Times New Roman,serif" font-size="14.00">Suburgatory</text>
</a>
</g>
</g>
<!-- m1741256&#45;&#45;m1586680 -->
<g id="edge36" class="edge"><title>m1741256&#45;&#45;m1586680</title>
<g id="a_edge36"><a xlink:href="../connection.php?1741256-1586680" target="_top">
<path fill="none" stroke="black" d="M338.607,-359.697C338.607,-348.846 338.607,-334.917 338.607,-324.104"/>
</a>
</g>
</g>
<!-- m1845307 -->
<g id="node22" class="node"><title>m1845307</title>
<g id="a_node22"><a xlink:href="../show.php?1845307" xlink:title="2 Broke Girls" target="_top">
<ellipse fill="none" stroke="black" cx="546.607" cy="-234" rx="59.1941" ry="18"/>
<text text-anchor="middle" x="546.607" y="-230.3" font-family="Times New Roman,serif" font-size="14.00">2 Broke Girls</text>
</a>
</g>
</g>
<!-- m1845307&#45;&#45;m285403 -->
<g id="edge37" class="edge"><title>m1845307&#45;&#45;m285403</title>
<g id="a_edge37"><a xlink:href="../connection.php?1845307-285403" target="_top">
<path fill="none" stroke="black" d="M542.405,-215.697C539.77,-204.846 536.387,-190.917 533.761,-180.104"/>
</a>
</g>
</g>
</g>
</svg>
